<svg width="32" height="32" xmlns="http://www.w3.org/2000/svg"><path d="M27.269 27.267h-4.746v-7.426c0-1.77-.03-4.049-2.466-4.049-2.47 0-2.846 1.93-2.846 3.922v7.553H12.47v-15.27h4.55v2.087h.065c.633-1.2 2.18-2.467 4.49-2.467 4.806 0 5.694 3.162 5.694 7.275v8.375zM7.119 9.91a2.751 2.751 0 0 1-2.754-2.753A2.753 2.753 0 1 1 7.119 9.91zm2.374 17.357H4.742v-15.27h4.75v15.27zM30.667 0H1.334C.597 0 0 .597 0 1.333v29.333C0 31.403.597 32 1.334 32h29.333c.736 0 1.333-.597 1.333-1.334V1.333C32 .597 31.403 0 30.667 0z" fill="#0077B5" fill-rule="evenodd"/></svg>