<svg width="32" height="26" xmlns="http://www.w3.org/2000/svg"><path d="M32 3.076a13.14 13.14 0 0 1-3.771 1.034A6.584 6.584 0 0 0 31.116.478a13.166 13.166 0 0 1-4.169 1.593 6.557 6.557 0 0 0-4.792-2.073 6.565 6.565 0 0 0-6.565 6.565c0 .514.058 1.015.17 1.496a18.639 18.639 0 0 1-13.532-6.86 6.539 6.539 0 0 0-.889 3.3 6.563 6.563 0 0 0 2.92 5.465 6.532 6.532 0 0 1-2.973-.821l-.001.083a6.568 6.568 0 0 0 5.267 6.437 6.578 6.578 0 0 1-2.965.113 6.571 6.571 0 0 0 6.133 4.559 13.172 13.172 0 0 1-8.154 2.81c-.53 0-1.052-.031-1.566-.091a18.587 18.587 0 0 0 10.064 2.949c12.076 0 18.679-10.004 18.679-18.68 0-.284-.006-.567-.019-.85A13.315 13.315 0 0 0 32 3.077" fill="#1DA1F2" fill-rule="evenodd"/></svg>